<svg fill="#4CAF50" version="1.1" id="Capa_1" xmlns="http://www.w3.org/2000/svg" xmlns:xlink="http://www.w3.org/1999/xlink" width="34px" height="34px" viewBox="0 0 30.325 30.324" xml:space="preserve">

<g id="SVGRepo_bgCarrier" stroke-width="0"></g>

<g id="SVGRepo_tracerCarrier" stroke-linecap="round" stroke-linejoin="round"></g>

<g id="SVGRepo_iconCarrier"> <g> <g> <g id="Icons_23_"> <path d="M18.743,27.256c1.012-3.889,3.854-15.249,3.854-19.766c0-2.389-0.349-4.739-1.008-6.795C21.455,0.281,21.07,0,20.637,0 H9.687C9.252,0,8.868,0.281,8.735,0.695C8.076,2.752,7.727,5.102,7.727,7.49c0,4.516,2.843,15.875,3.853,19.766 c-1.251,0.318-2.048,0.798-2.048,1.336c0,0.957,2.521,1.732,5.629,1.732c3.109,0,5.63-0.775,5.63-1.732 C20.792,28.054,19.995,27.574,18.743,27.256z M13.196,14.654c0,0.552-0.447,1-1,1c-0.553,0-1-0.448-1-1V7.49H9.727 c0-1.917,0.243-3.799,0.706-5.49h9.457c0.463,1.691,0.706,3.573,0.706,5.49h-7.4V14.654z"></path> </g> </g> </g> </g>

</svg>