<?xml version="1.0" encoding="utf-8"?>
<!-- Generator: Adobe Illustrator 23.1.1, SVG Export Plug-In . SVG Version: 6.00 Build 0)  -->
<svg version="1.1" id="Capa_1" xmlns="http://www.w3.org/2000/svg" xmlns:xlink="http://www.w3.org/1999/xlink" x="0px" y="0px"
	 viewBox="0 0 34 34" style="enable-background:new 0 0 34 34;" xml:space="preserve">
<style type="text/css">
	.st0{fill:#4CAF50;}
</style>
<g id="SVGRepo_bgCarrier">
</g>
<g id="SVGRepo_tracerCarrier">
</g>
<g id="SVGRepo_iconCarrier">
	<g>
		<g>
			<g id="Icons_23_">
				<path class="st0" d="M19.5,31c0.9-3.8,3.5-14.9,3.5-19.3C23,9.3,22.7,7,22.1,5c-0.1-0.4-0.5-0.7-0.9-0.7h-9.8
					c-0.4,0-0.7,0.3-0.9,0.7C10,7,9.7,9.3,9.7,11.7c0,4.4,2.5,15.5,3.5,19.3c-1.1,0.3-1.8,0.8-1.8,1.3c0,0.9,2.3,1.7,5,1.7
					c2.8,0,5-0.8,5-1.7C21.4,31.8,20.6,31.3,19.5,31z M14.6,18.7c0,0.5-0.4,1-0.9,1s-0.9-0.4-0.9-1v-7h-1.3c0-1.9,0.2-3.7,0.6-5.4
					h8.5c0.4,1.7,0.6,3.5,0.6,5.4h-6.6C14.6,11.7,14.6,18.7,14.6,18.7z"/>
			</g>
		</g>
	</g>
</g>
</svg>
