<?xml version="1.0" encoding="utf-8"?>
<!-- Generator: Adobe Illustrator 23.1.1, SVG Export Plug-In . SVG Version: 6.00 Build 0)  -->
<svg version="1.1" id="Full_Mug" xmlns="http://www.w3.org/2000/svg" xmlns:xlink="http://www.w3.org/1999/xlink" x="0px" y="0px"
	 viewBox="0 0 34 34" style="enable-background:new 0 0 34 34;" xml:space="preserve">
<style type="text/css">
	.st0{fill:none;}
	.st1{fill:#4CAF50;}
	.st2{fill:none;stroke:#4CAF50;stroke-width:1.0625;stroke-miterlimit:2.125;}
</style>
<g id="SVGRepo_bgCarrier">
</g>
<g id="SVGRepo_tracerCarrier">
</g>
<g id="SVGRepo_iconCarrier">
	<polygon id="rect2317-4" class="st0" points="0,9.6 29.7,9.6 29.7,34.1 0,34 	"/>
	<g id="g2108" transform="translate(8.695 14.171)">
		<path id="path2110" class="st1" d="M-0.2,1.7c0,0-0.1,7.6,1.9,11.1c1.5,2.7,2.5,3,4.2,3c0.5,0,1.1,0,1.8,0s1.2,0,1.8,0
			c1.7,0,2.7-0.3,4.2-3c2-3.5,1.9-11.1,1.9-11.1H-0.2 M-0.2,0.8h15.8c0.5,0,0.9,0.4,0.9,0.9c0,0.3,0,7.8-2,11.5
			c-0.8,1.5-1.5,2.3-2.3,2.9c-0.8,0.5-1.7,0.7-2.7,0.6c-0.2,0-0.5,0-0.8,0c-0.3,0-0.6,0-1,0s-0.7,0-1,0c-0.3,0-0.5,0-0.8,0
			c-0.9,0.1-1.9-0.2-2.7-0.6c-0.8-0.5-1.5-1.4-2.3-2.9c-2.1-3.7-2-11.2-2-11.5C-1.1,1.2-0.7,0.8-0.2,0.8L-0.2,0.8z"/>
	</g>
	<g id="g2112" transform="translate(48.722 22.068)">
		<path id="path2114" class="st2" d="M-23.8-4c0,0,3.6-0.9,3.3,3.2s-4.6,4.4-4.6,4.4"/>
	</g>
	<g id="g2116" transform="translate(12.859 19.408)">
		<path id="path2118" class="st1" d="M0.3-2.4c2.2,0,3.9,0.9,6.1,1.3s4.1-0.7,4-0.3c-0.2,2.1-0.6,6.8-1.6,8.6
			c-1.8,3.1-2.7,2.7-5.3,2.7S0,10.3-1.8,7.2c-0.9-1.7-1.6-5.6-1.8-7.9C-3.6-1.6-1.9-2.4,0.3-2.4z"/>
	</g>
</g>
</svg>
