<?xml version="1.0" encoding="utf-8"?>
<!-- Generator: Adobe Illustrator 23.1.1, SVG Export Plug-In . SVG Version: 6.00 Build 0)  -->
<svg version="1.1" id="Capa_1" xmlns="http://www.w3.org/2000/svg" xmlns:xlink="http://www.w3.org/1999/xlink" x="0px" y="0px"
	 viewBox="0 0 34 34" style="enable-background:new 0 0 34 34;" xml:space="preserve">
<style type="text/css">
	.st0{fill:#4CAF50;}
</style>
<g id="SVGRepo_bgCarrier">
</g>
<g id="SVGRepo_tracerCarrier">
</g>
<g id="SVGRepo_iconCarrier">
	<g>
		<g>
			<g id="Icons_23_">
				<path class="st0" d="M17.5,31.4c0.7-3.2,2.8-12.7,2.8-16.5c0-2-0.2-4-0.7-5.7c-0.1-0.3-0.4-0.6-0.7-0.6h-7.8
					c-0.3,0-0.6,0.2-0.7,0.6C9.9,11,9.7,13,9.7,15c0,3.8,2,13.2,2.8,16.5c-0.9,0.3-1.5,0.7-1.5,1.1c0,0.8,1.8,1.4,4,1.4
					c2.2,0,4-0.6,4-1.4C19,32.1,18.4,31.7,17.5,31.4z M13.6,20.9c0,0.5-0.3,0.8-0.7,0.8c-0.4,0-0.7-0.4-0.7-0.8v-6h-1.1
					c0-1.6,0.2-3.2,0.5-4.6h6.8c0.3,1.4,0.5,3,0.5,4.6h-5.3C13.6,15,13.6,20.9,13.6,20.9z"/>
			</g>
		</g>
	</g>
</g>
</svg>
